<svg width="173" height="44" viewBox="0 0 173 44" fill="none" xmlns="http://www.w3.org/2000/svg">
<path d="M35.4272 6.60449C29.956 6.60449 25.5206 11.0399 25.5206 16.5112C25.5206 21.9824 29.956 26.4178 35.4272 26.4178C40.8984 26.4178 45.3339 21.9824 45.3339 16.5112C45.3339 11.0399 40.8984 6.60449 35.4272 6.60449ZM35.4272 19.8134C33.6035 19.8134 32.125 18.3349 32.125 16.5112C32.125 14.6874 33.6035 13.2089 35.4272 13.2089C37.251 13.2089 38.7294 14.6874 38.7294 16.5112C38.7294 18.3349 37.251 19.8134 35.4272 19.8134Z" fill="#0066FF"/>
<path d="M30.3352 3.30222C30.3352 4.21515 29.9645 5.03912 29.3671 5.63644C28.7698 6.23588 27.9437 6.60444 27.0329 6.60444H23.665L21.4389 21.6455C20.7483 26.2737 16.9399 29.72 12.2926 29.72H7.2196C5.39586 29.72 3.91738 28.2415 3.91738 26.4178C3.91738 25.507 4.28806 24.6809 4.88538 24.0835C5.48271 23.4862 6.30879 23.1155 7.2196 23.1155H9.91391C12.2185 23.1155 14.1545 21.2749 14.468 19.1715L16.2366 6.60444H13.824C12.0003 6.60444 10.5218 5.12596 10.5218 3.30222C10.5218 2.38929 10.8925 1.56532 11.4898 0.968002C12.0871 0.368561 12.9132 0 13.824 0H27.0329C28.8567 0 30.3352 1.47848 30.3352 3.30222Z" fill="#0066FF"/>
<path d="M66.9053 23.1156C66.9053 24.0285 66.5367 24.8525 65.9373 25.4498C65.34 26.0493 64.516 26.4178 63.6031 26.4178H50.3942C48.5683 26.4178 47.0898 24.9393 47.0898 23.1156V9.90671C47.0898 8.08297 48.5683 6.60449 50.3942 6.60449H63.6031C65.4268 6.60449 66.9053 8.08297 66.9053 9.90671C66.9053 10.8196 66.5367 11.6436 65.9373 12.2409C65.34 12.8404 64.516 13.2089 63.6031 13.2089H56.9986C58.8224 13.2089 60.3008 14.6874 60.3008 16.5112C60.3008 17.4241 59.9323 18.2481 59.3328 18.8454C58.7355 19.4448 57.9116 19.8134 56.9986 19.8134H63.6031C65.4268 19.8134 66.9053 21.2919 66.9053 23.1156Z" fill="#0066FF"/>
<path d="M173 23.1156C173 24.0285 172.631 24.8525 172.032 25.4498C171.435 26.0493 170.611 26.4178 169.698 26.4178H156.489C154.665 26.4178 153.187 24.9393 153.187 23.1156V9.90671C153.187 8.08297 154.665 6.60449 156.489 6.60449H169.698C171.522 6.60449 173 8.08297 173 9.90671C173 10.8196 172.631 11.6436 172.032 12.2409C171.435 12.8404 170.611 13.2089 169.698 13.2089H163.093C164.917 13.2089 166.396 14.6874 166.396 16.5112C166.396 17.4241 166.027 18.2481 165.428 18.8454C164.83 19.4448 164.006 19.8134 163.093 19.8134H169.698C171.522 19.8134 173 21.2919 173 23.1156Z" fill="#0066FF"/>
<path d="M88.4746 9.90671V23.1156C88.4746 24.9393 86.9961 26.4178 85.1724 26.4178H71.9635C70.1397 26.4178 68.6613 24.9393 68.6613 23.1156V9.90671C68.6613 8.08297 70.1397 6.60449 71.9635 6.60449C72.8743 6.60449 73.7004 6.97305 74.2977 7.57249C74.895 8.16982 75.2657 8.99378 75.2657 9.90671V19.8134H81.8701V9.90671C81.8701 8.08297 83.3486 6.60449 85.1724 6.60449C86.0832 6.60449 86.9093 6.97305 87.5066 7.57249C88.1039 8.16982 88.4746 8.99378 88.4746 9.90671Z" fill="#0066FF"/>
<path d="M110.046 9.35175V23.6706C110.046 25.1872 108.815 26.4178 107.299 26.4178H106.189C105.356 26.4178 104.611 26.0471 104.109 25.4625L104.054 25.399L96.8371 17.0619V23.6706C96.8371 25.1872 95.6065 26.4178 94.0898 26.4178H92.9799C91.4633 26.4178 90.2327 25.1872 90.2327 23.6706V9.35175C90.2327 7.83515 91.4633 6.60449 92.9799 6.60449H94.0898C94.9138 6.60449 95.6531 6.9667 96.1551 7.54284H96.1572L96.2101 7.60427L103.442 15.9583V9.35175C103.442 7.83515 104.672 6.60449 106.189 6.60449H107.299C108.815 6.60449 110.046 7.83515 110.046 9.35175Z" fill="#0066FF"/>
<path d="M121.709 6.60449H115.104C113.28 6.60449 111.802 8.08297 111.802 9.90671V23.1156C111.802 24.9393 113.28 26.4178 115.104 26.4178H121.546C126.979 26.4178 131.524 22.1116 131.615 16.6806C131.706 11.131 127.237 6.60449 121.709 6.60449ZM121.615 19.8134H119.006C118.675 19.8134 118.406 19.5444 118.406 19.2139V13.8063C118.406 13.4758 118.675 13.2089 119.006 13.2089H121.709C123.585 13.2089 125.098 14.7743 125.009 16.67C124.924 18.4472 123.395 19.8134 121.615 19.8134Z" fill="#0066FF"/>
<path d="M151.431 23.2893C151.431 24.9542 150.081 26.4178 148.296 26.4178C146.947 26.4178 145.75 25.5557 145.322 24.2764L141.524 12.8785L137.724 24.2764C137.296 25.5557 136.099 26.4178 134.752 26.4178C132.613 26.4178 131.103 24.323 131.778 22.2937L136.294 8.74596C136.722 7.46659 137.919 6.60449 139.268 6.60449H143.778C145.127 6.60449 146.324 7.46659 146.752 8.74596L151.268 22.2937C151.378 22.6263 151.431 22.961 151.431 23.2893Z" fill="#0066FF"/>
<path d="M2.96571 20.76C4.60363 20.76 5.93143 19.4322 5.93143 17.7943C5.93143 16.1563 4.60363 14.8286 2.96571 14.8286C1.3278 14.8286 0 16.1563 0 17.7943C0 19.4322 1.3278 20.76 2.96571 20.76Z" fill="#0066FF"/>
<path d="M9.88571 14.8286C11.5236 14.8286 12.8514 13.5008 12.8514 11.8629C12.8514 10.225 11.5236 8.89716 9.88571 8.89716C8.24779 8.89716 6.92 10.225 6.92 11.8629C6.92 13.5008 8.24779 14.8286 9.88571 14.8286Z" fill="#0066FF"/>
<path d="M56.72 32.576V33.584H54.536C54.548 34.496 55.388 35.312 56.96 35.624L56.432 36.632C55.22 36.38 54.368 35.804 53.9 35.048C53.432 35.876 52.568 36.5 51.32 36.776L50.768 35.768C52.352 35.444 53.192 34.556 53.216 33.584H51.032V32.576H53.216V31.472H54.536V32.576H56.72ZM50.36 37.328C52.34 37.328 54.968 37.316 57.224 37.016L57.32 37.976C56.408 38.132 55.46 38.228 54.536 38.288V41.72H53.216V38.348C52.256 38.384 51.332 38.384 50.528 38.384L50.36 37.328ZM57.92 42.032V31.472H59.216V42.032H57.92ZM63.6771 31.928C65.0571 31.916 66.1371 32.708 66.4011 33.872H68.3091V31.448H69.6051V37.136H68.3091V34.904H66.4131C66.1611 36.104 65.0691 36.908 63.6771 36.92C62.0571 36.908 60.8811 35.864 60.8931 34.4C60.8811 32.96 62.0571 31.916 63.6771 31.928ZM62.1171 34.4C62.1291 35.252 62.7651 35.816 63.6771 35.816C64.5771 35.816 65.2131 35.252 65.2131 34.4C65.2131 33.548 64.5771 32.996 63.6771 33.008C62.7651 32.996 62.1291 33.548 62.1171 34.4ZM62.6211 41.912V37.616H63.9171V38.744H68.3091V37.616H69.6051V41.912H62.6211ZM63.9171 40.856H68.3091V39.752H63.9171V40.856ZM79.4636 34.616V35.672H83.6876V36.728H73.9916V35.672H78.1676V34.616H79.4636ZM74.4476 34.256C76.3676 34.124 77.6396 33.488 77.9036 32.744H74.8796V31.736H82.7996V32.744H79.7516C80.0156 33.488 81.2636 34.124 83.2076 34.256L82.7996 35.216C80.8436 35.072 79.3916 34.4 78.8276 33.404C78.2756 34.4 76.8236 35.072 74.8796 35.216L74.4476 34.256ZM74.8796 38.888V37.904H78.1676V37.064H79.4876V37.904H82.7516V38.888H74.8796ZM75.5756 40.664C75.5876 39.764 76.7516 39.284 78.8156 39.272C80.8676 39.284 82.0556 39.764 82.0556 40.664C82.0556 41.6 80.8676 42.08 78.8156 42.08C76.7516 42.08 75.5876 41.6 75.5756 40.664ZM76.9196 40.664C76.9196 41.036 77.5796 41.216 78.8156 41.216C80.0636 41.216 80.6996 41.036 80.7116 40.664C80.6996 40.304 80.0636 40.16 78.8156 40.16C77.5796 40.16 76.9196 40.304 76.9196 40.664ZM94.0527 36.92V37.952H84.4047V36.92H94.0527ZM85.3887 33.944C85.4007 32.6 86.9007 31.784 89.2287 31.784C91.5207 31.784 93.0207 32.6 93.0207 33.944C93.0207 35.276 91.5207 36.104 89.2287 36.104C86.9007 36.104 85.4007 35.276 85.3887 33.944ZM85.5807 41.84V38.744H86.9007V40.784H92.9487V41.84H85.5807ZM86.7567 33.944C86.7447 34.652 87.6687 35.036 89.2287 35.048C90.7527 35.036 91.6887 34.652 91.6767 33.944C91.6887 33.236 90.7527 32.828 89.2287 32.816C87.6687 32.828 86.7447 33.236 86.7567 33.944ZM103.914 31.448V42.032H102.666V31.448H103.914ZM95.1298 39.608V32.696H99.1618V33.728H96.4018V38.528C97.6618 38.516 98.5618 38.456 99.5938 38.24L99.7138 39.32C98.5138 39.56 97.4578 39.608 95.8498 39.608H95.1298ZM98.4418 36.44V35.384H100.482V31.664H101.706V41.528H100.482V36.44H98.4418ZM106.959 38.408C106.983 36.908 107.403 36.452 108.135 35.984C108.639 35.672 109.023 35.276 109.023 34.688C109.023 34.04 108.507 33.62 107.871 33.608C107.283 33.62 106.731 33.992 106.695 34.76H105.207C105.255 33.2 106.431 32.396 107.871 32.408C109.467 32.396 110.547 33.284 110.559 34.664C110.547 35.624 110.079 36.248 109.311 36.704C108.639 37.112 108.351 37.52 108.351 38.408V38.504H106.959V38.408ZM106.767 40.184C106.767 39.692 107.187 39.284 107.679 39.272C108.171 39.284 108.591 39.692 108.591 40.184C108.591 40.688 108.171 41.096 107.679 41.096C107.187 41.096 106.767 40.688 106.767 40.184ZM117.169 32.216C118.129 32.228 118.921 32.756 119.389 33.68H121.873V31.448H123.169V42.056H121.873V38.048H119.497C119.029 39.104 118.201 39.716 117.169 39.704C115.585 39.716 114.457 38.264 114.457 35.96C114.457 33.68 115.585 32.228 117.169 32.216ZM115.705 35.96C115.705 37.592 116.305 38.54 117.169 38.528C118.057 38.54 118.645 37.592 118.657 35.96C118.645 34.352 118.057 33.392 117.169 33.392C116.305 33.392 115.705 34.352 115.705 35.96ZM119.761 34.76C119.845 35.132 119.881 35.528 119.881 35.96C119.881 36.332 119.857 36.668 119.797 36.992H121.873V34.76H119.761ZM133.51 31.448V42.032H132.19V31.448H133.51ZM124.75 39.128C127.51 37.808 128.794 36.02 129.034 33.608H125.278V32.576H130.366C130.354 35.732 129.13 38.408 125.422 40.16L124.75 39.128ZM143.393 34.616V35.672H147.617V36.728H137.921V35.672H142.097V34.616H143.393ZM138.377 34.256C140.297 34.124 141.569 33.488 141.833 32.744H138.809V31.736H146.729V32.744H143.681C143.945 33.488 145.193 34.124 147.137 34.256L146.729 35.216C144.773 35.072 143.321 34.4 142.757 33.404C142.205 34.4 140.753 35.072 138.809 35.216L138.377 34.256ZM138.809 38.888V37.904H142.097V37.064H143.417V37.904H146.681V38.888H138.809ZM139.505 40.664C139.517 39.764 140.681 39.284 142.745 39.272C144.797 39.284 145.985 39.764 145.985 40.664C145.985 41.6 144.797 42.08 142.745 42.08C140.681 42.08 139.517 41.6 139.505 40.664ZM140.849 40.664C140.849 41.036 141.509 41.216 142.745 41.216C143.993 41.216 144.629 41.036 144.641 40.664C144.629 40.304 143.993 40.16 142.745 40.16C141.509 40.16 140.849 40.304 140.849 40.664ZM157.982 36.92V37.952H148.334V36.92H157.982ZM149.318 33.944C149.33 32.6 150.83 31.784 153.158 31.784C155.45 31.784 156.95 32.6 156.95 33.944C156.95 35.276 155.45 36.104 153.158 36.104C150.83 36.104 149.33 35.276 149.318 33.944ZM149.51 41.84V38.744H150.83V40.784H156.878V41.84H149.51ZM150.686 33.944C150.674 34.652 151.598 35.036 153.158 35.048C154.682 35.036 155.618 34.652 155.606 33.944C155.618 33.236 154.682 32.828 153.158 32.816C151.598 32.828 150.674 33.236 150.686 33.944ZM167.843 31.448V42.032H166.595V31.448H167.843ZM159.059 39.608V32.696H163.091V33.728H160.331V38.528C161.591 38.516 162.491 38.456 163.523 38.24L163.643 39.32C162.443 39.56 161.387 39.608 159.779 39.608H159.059ZM162.371 36.44V35.384H164.411V31.664H165.635V41.528H164.411V36.44H162.371ZM171.296 32.504L171.152 38.504H169.832L169.688 32.504H171.296ZM169.568 40.184C169.568 39.692 169.988 39.284 170.48 39.272C170.972 39.284 171.392 39.692 171.392 40.184C171.392 40.688 170.972 41.096 170.48 41.096C169.988 41.096 169.568 40.688 169.568 40.184Z" fill="#0066FF"/>
</svg>
