<svg width="134" height="24" viewBox="0 0 134 24" fill="none" xmlns="http://www.w3.org/2000/svg">
<path d="M27.4408 5.46558C23.2029 5.46558 19.7674 8.90112 19.7674 13.1389C19.7674 17.3768 23.2029 20.8123 27.4408 20.8123C31.6786 20.8123 35.1141 17.3768 35.1141 13.1389C35.1141 8.90112 31.6786 5.46558 27.4408 5.46558ZM27.4408 15.6967C26.0282 15.6967 24.883 14.5516 24.883 13.1389C24.883 11.7263 26.0282 10.5812 27.4408 10.5812C28.8534 10.5812 29.9986 11.7263 29.9986 13.1389C29.9986 14.5516 28.8534 15.6967 27.4408 15.6967Z" fill="#0066FF"/>
<path d="M23.4966 2.90777C23.4966 3.61489 23.2094 4.25311 22.7468 4.71577C22.2841 5.18008 21.6443 5.46556 20.9388 5.46556H18.3301L16.6058 17.1159C16.0709 20.7007 13.121 23.3701 9.52141 23.3701H5.59203C4.17942 23.3701 3.03424 22.2249 3.03424 20.8123C3.03424 20.1068 3.32136 19.467 3.78402 19.0043C4.24669 18.5416 4.88655 18.2545 5.59203 18.2545H7.67895C9.46399 18.2545 10.9636 16.8288 11.2064 15.1996L12.5763 5.46556H10.7076C9.295 5.46556 8.14982 4.32037 8.14982 2.90777C8.14982 2.20064 8.43694 1.56242 8.8996 1.09976C9.36227 0.635451 10.0021 0.349976 10.7076 0.349976H20.9388C22.3514 0.349976 23.4966 1.49516 23.4966 2.90777Z" fill="#0066FF"/>
<path d="M51.8226 18.2545C51.8226 18.9616 51.5371 19.5999 51.0728 20.0625C50.6102 20.5268 49.972 20.8123 49.2648 20.8123H39.0337C37.6194 20.8123 36.4742 19.6671 36.4742 18.2545V8.02337C36.4742 6.61076 37.6194 5.46558 39.0337 5.46558H49.2648C50.6774 5.46558 51.8226 6.61076 51.8226 8.02337C51.8226 8.73049 51.5371 9.36871 51.0728 9.83137C50.6102 10.2957 49.972 10.5812 49.2648 10.5812H44.1493C45.5619 10.5812 46.707 11.7263 46.707 13.1389C46.707 13.8461 46.4216 14.4843 45.9573 14.947C45.4946 15.4113 44.8564 15.6967 44.1493 15.6967H49.2648C50.6774 15.6967 51.8226 16.8419 51.8226 18.2545Z" fill="#0066FF"/>
<path d="M134 18.2545C134 18.9616 133.714 19.5999 133.25 20.0625C132.787 20.5268 132.149 20.8123 131.442 20.8123H121.211C119.798 20.8123 118.653 19.6671 118.653 18.2545V8.02337C118.653 6.61076 119.798 5.46558 121.211 5.46558H131.442C132.855 5.46558 134 6.61076 134 8.02337C134 8.73049 133.714 9.36871 133.25 9.83137C132.787 10.2957 132.149 10.5812 131.442 10.5812H126.327C127.739 10.5812 128.884 11.7263 128.884 13.1389C128.884 13.8461 128.599 14.4843 128.135 14.947C127.672 15.4113 127.034 15.6967 126.327 15.6967H131.442C132.855 15.6967 134 16.8419 134 18.2545Z" fill="#0066FF"/>
<path d="M68.5295 8.02337V18.2545C68.5295 19.6671 67.3843 20.8123 65.9717 20.8123H55.7405C54.3279 20.8123 53.1827 19.6671 53.1827 18.2545V8.02337C53.1827 6.61076 54.3279 5.46558 55.7405 5.46558C56.446 5.46558 57.0859 5.75105 57.5485 6.21536C58.0112 6.67802 58.2983 7.31624 58.2983 8.02337V15.6967H63.4139V8.02337C63.4139 6.61076 64.5591 5.46558 65.9717 5.46558C66.6772 5.46558 67.317 5.75105 67.7797 6.21536C68.2424 6.67802 68.5295 7.31624 68.5295 8.02337Z" fill="#0066FF"/>
<path d="M85.238 7.59351V18.6844C85.238 19.8591 84.2848 20.8123 83.11 20.8123H82.2503C81.6056 20.8123 81.028 20.5252 80.6392 20.0724L80.5965 20.0232L75.0068 13.5655V18.6844C75.0068 19.8591 74.0536 20.8123 72.8789 20.8123H72.0192C70.8445 20.8123 69.8912 19.8591 69.8912 18.6844V7.59351C69.8912 6.4188 70.8445 5.46558 72.0192 5.46558H72.8789C73.5171 5.46558 74.0897 5.74613 74.4785 6.19239H74.4802L74.5212 6.23997L80.1224 12.7107V7.59351C80.1224 6.4188 81.0756 5.46558 82.2503 5.46558H83.11C84.2848 5.46558 85.238 6.4188 85.238 7.59351Z" fill="#0066FF"/>
<path d="M94.2715 5.46558H89.1559C87.7433 5.46558 86.5981 6.61076 86.5981 8.02337V18.2545C86.5981 19.6671 87.7433 20.8123 89.1559 20.8123H94.1452C98.3535 20.8123 101.874 17.4769 101.945 13.2702C102.015 8.97167 98.5536 5.46558 94.2715 5.46558ZM94.1993 15.6967H92.178C91.9221 15.6967 91.7137 15.4884 91.7137 15.2324V11.0438C91.7137 10.7879 91.9221 10.5812 92.178 10.5812H94.2715C95.7251 10.5812 96.8966 11.7936 96.8277 13.262C96.762 14.6385 95.5775 15.6967 94.1993 15.6967Z" fill="#0066FF"/>
<path d="M117.293 18.3891C117.293 19.6786 116.248 20.8123 114.865 20.8123C113.82 20.8123 112.893 20.1446 112.562 19.1536L109.62 10.3252L106.676 19.1536C106.345 20.1446 105.418 20.8123 104.375 20.8123C102.718 20.8123 101.548 19.1897 102.071 17.6179L105.569 7.12428C105.9 6.13333 106.827 5.46558 107.873 5.46558H111.365C112.411 5.46558 113.338 6.13333 113.669 7.12428L117.167 17.6179C117.252 17.8755 117.293 18.1348 117.293 18.3891Z" fill="#0066FF"/>
<path d="M2.29714 16.43C3.56582 16.43 4.59429 15.4015 4.59429 14.1328C4.59429 12.8642 3.56582 11.8357 2.29714 11.8357C1.02847 11.8357 0 12.8642 0 14.1328C0 15.4015 1.02847 16.43 2.29714 16.43Z" fill="#0066FF"/>
<path d="M7.65713 11.8356C8.92581 11.8356 9.95427 10.8072 9.95427 9.53848C9.95427 8.2698 8.92581 7.24133 7.65713 7.24133C6.38845 7.24133 5.35999 8.2698 5.35999 9.53848C5.35999 10.8072 6.38845 11.8356 7.65713 11.8356Z" fill="#0066FF"/>
</svg>
